<svg width="40" height="40" viewBox="0 0 40 40" fill="none" xmlns="http://www.w3.org/2000/svg">
<path d="M0 14C0 6.26801 6.26801 0 14 0H26C33.732 0 40 6.26801 40 14V26C40 33.732 33.732 40 26 40H14C6.26801 40 0 33.732 0 26V14Z" fill="#ECFDF5"/>
<path d="M19.1666 26.6667C17.7033 26.6712 16.2918 26.1255 15.2121 25.1379C14.1323 24.1504 13.4631 22.793 13.3372 21.3352C13.2114 19.8773 13.638 18.4254 14.5326 17.2674C15.4271 16.1094 16.7242 15.3298 18.1666 15.0834C22.9166 14.1667 24.1666 13.7334 25.8333 11.6667C26.6666 13.3334 27.5 15.1501 27.5 18.3334C27.5 22.9167 23.5166 26.6667 19.1666 26.6667Z" stroke="#009966" stroke-width="1.25" stroke-linecap="round" stroke-linejoin="round"/>
<path d="M11.6667 27.5C11.6667 25 13.2084 23.0333 15.9 22.5C17.9167 22.1 20 20.8333 20.8334 20" stroke="#009966" stroke-width="1.25" stroke-linecap="round" stroke-linejoin="round"/>
</svg>
