<svg width="40" height="40" viewBox="0 0 40 40" fill="none" xmlns="http://www.w3.org/2000/svg">
<path d="M0 14C0 6.26801 6.26801 0 14 0H26C33.732 0 40 6.26801 40 14V26C40 33.732 33.732 40 26 40H14C6.26801 40 0 33.732 0 26V14Z" fill="#EFF6FF"/>
<path d="M20 28.3333C21.5471 28.3333 23.0308 27.7188 24.1247 26.6248C25.2187 25.5308 25.8333 24.0471 25.8333 22.5C25.8333 20.8333 25 19.25 23.3333 17.9167C21.6666 16.5833 20.4166 14.5833 20 12.5C19.5833 14.5833 18.3333 16.5833 16.6666 17.9167C15 19.25 14.1666 20.8333 14.1666 22.5C14.1666 24.0471 14.7812 25.5308 15.8752 26.6248C16.9691 27.7188 18.4529 28.3333 20 28.3333Z" stroke="#155DFC" stroke-width="1.25" stroke-linecap="round" stroke-linejoin="round"/>
</svg>
