<svg width="40" height="40" viewBox="0 0 40 40" fill="none" xmlns="http://www.w3.org/2000/svg">
<path d="M0 14C0 6.26801 6.26801 0 14 0H26C33.732 0 40 6.26801 40 14V26C40 33.732 33.732 40 26 40H14C6.26801 40 0 33.732 0 26V14Z" fill="#FAF5FF"/>
<path d="M20.6667 26.3333C20.878 26.4917 21.1239 26.5977 21.3841 26.6425C21.6444 26.6872 21.9116 26.6695 22.1636 26.5908C22.4157 26.512 22.6455 26.3745 22.834 26.1896C23.0225 26.0046 23.1643 25.7775 23.2478 25.527C23.3313 25.2764 23.3541 25.0096 23.3143 24.7486C23.2745 24.4875 23.1732 24.2396 23.0188 24.0254C22.8643 23.8112 22.6612 23.6367 22.4262 23.5163C22.1911 23.396 21.9308 23.3333 21.6667 23.3333H11.6667" stroke="#9810FA" stroke-width="1.25" stroke-linecap="round" stroke-linejoin="round"/>
<path d="M24.5834 16.6666C24.7964 16.3825 25.0786 16.1576 25.403 16.0132C25.7275 15.8688 26.0834 15.8098 26.4371 15.8417C26.7908 15.8736 27.1305 15.9953 27.4238 16.1954C27.7172 16.3955 27.9546 16.6673 28.1134 16.9849C28.2722 17.3025 28.3472 17.6555 28.3312 18.0102C28.3153 18.365 28.2089 18.7098 28.0222 19.0119C27.8355 19.3139 27.5747 19.5633 27.2645 19.7362C26.9544 19.9091 26.6051 19.9999 26.25 19.9999H11.6667" stroke="#9810FA" stroke-width="1.25" stroke-linecap="round" stroke-linejoin="round"/>
<path d="M18.1667 13.6666C18.378 13.5081 18.6239 13.4022 18.8841 13.3574C19.1444 13.3126 19.4116 13.3303 19.6636 13.4091C19.9157 13.4878 20.1455 13.6253 20.334 13.8103C20.5225 13.9952 20.6643 14.2223 20.7478 14.4729C20.8313 14.7234 20.8541 14.9902 20.8143 15.2513C20.7745 15.5123 20.6732 15.7602 20.5188 15.9744C20.3643 16.1887 20.1612 16.3632 19.9262 16.4835C19.6911 16.6038 19.4308 16.6666 19.1667 16.6666H11.6667" stroke="#9810FA" stroke-width="1.25" stroke-linecap="round" stroke-linejoin="round"/>
</svg>
