<svg width="40" height="40" viewBox="0 0 40 40" fill="none" xmlns="http://www.w3.org/2000/svg">
<path d="M0 14C0 6.26801 6.26801 0 14 0H26C33.732 0 40 6.26801 40 14V26C40 33.732 33.732 40 26 40H14C6.26801 40 0 33.732 0 26V14Z" fill="#FFF7ED"/>
<path d="M20 23.3334C21.8409 23.3334 23.3333 21.841 23.3333 20.0001C23.3333 18.1591 21.8409 16.6667 20 16.6667C18.159 16.6667 16.6666 18.1591 16.6666 20.0001C16.6666 21.841 18.159 23.3334 20 23.3334Z" stroke="#F54900" stroke-width="1.25" stroke-linecap="round" stroke-linejoin="round"/>
<path d="M20 11.6667V13.3334" stroke="#F54900" stroke-width="1.25" stroke-linecap="round" stroke-linejoin="round"/>
<path d="M20 26.6667V28.3334" stroke="#F54900" stroke-width="1.25" stroke-linecap="round" stroke-linejoin="round"/>
<path d="M14.1084 14.1084L15.2834 15.2834" stroke="#F54900" stroke-width="1.25" stroke-linecap="round" stroke-linejoin="round"/>
<path d="M24.7167 24.7166L25.8917 25.8916" stroke="#F54900" stroke-width="1.25" stroke-linecap="round" stroke-linejoin="round"/>
<path d="M11.6666 20H13.3333" stroke="#F54900" stroke-width="1.25" stroke-linecap="round" stroke-linejoin="round"/>
<path d="M26.6666 20H28.3333" stroke="#F54900" stroke-width="1.25" stroke-linecap="round" stroke-linejoin="round"/>
<path d="M15.2834 24.7166L14.1084 25.8916" stroke="#F54900" stroke-width="1.25" stroke-linecap="round" stroke-linejoin="round"/>
<path d="M25.8917 14.1084L24.7167 15.2834" stroke="#F54900" stroke-width="1.25" stroke-linecap="round" stroke-linejoin="round"/>
</svg>
