<svg width="20" height="21" viewBox="0 0 20 21" fill="none" xmlns="http://www.w3.org/2000/svg">
<path d="M13.6667 18V16.3333C13.6667 15.4493 13.3155 14.6014 12.6904 13.9763C12.0652 13.3512 11.2174 13 10.3333 13H5.33333C4.44928 13 3.60143 13.3512 2.97631 13.9763C2.35119 14.6014 2 15.4493 2 16.3333V18" stroke="#009966" stroke-width="1.66667" stroke-linecap="round" stroke-linejoin="round"/>
<path d="M13.6667 3.10663C14.3815 3.29194 15.0145 3.70935 15.4664 4.29335C15.9183 4.87735 16.1635 5.59487 16.1635 6.33329C16.1635 7.07172 15.9183 7.78924 15.4664 8.37324C15.0145 8.95724 14.3815 9.37465 13.6667 9.55996" stroke="#009966" stroke-width="1.66667" stroke-linecap="round" stroke-linejoin="round"/>
<path d="M18.6667 17.9999V16.3332C18.6661 15.5947 18.4203 14.8772 17.9678 14.2935C17.5153 13.7098 16.8818 13.2929 16.1667 13.1082" stroke="#009966" stroke-width="1.66667" stroke-linecap="round" stroke-linejoin="round"/>
<path d="M7.83333 9.66667C9.67428 9.66667 11.1667 8.17428 11.1667 6.33333C11.1667 4.49238 9.67428 3 7.83333 3C5.99238 3 4.5 4.49238 4.5 6.33333C4.5 8.17428 5.99238 9.66667 7.83333 9.66667Z" stroke="#009966" stroke-width="1.66667" stroke-linecap="round" stroke-linejoin="round"/>
</svg>
