<svg width="20" height="22" viewBox="0 0 20 22" fill="none" xmlns="http://www.w3.org/2000/svg">
<path d="M9.49994 18C8.03666 18.0044 6.62515 17.4588 5.54537 16.4712C4.46559 15.4836 3.79641 14.1263 3.67055 12.6684C3.5447 11.2106 3.97135 9.75863 4.8659 8.60062C5.76045 7.4426 7.05755 6.66308 8.49994 6.41667C13.2499 5.5 14.4999 5.06667 16.1666 3C16.9999 4.66667 17.8333 6.48333 17.8333 9.66667C17.8333 14.25 13.8499 18 9.49994 18Z" stroke="#009966" stroke-width="1.66667" stroke-linecap="round" stroke-linejoin="round"/>
<path d="M2 18.8333C2 16.3333 3.54167 14.3666 6.23333 13.8333C8.25 13.4333 10.3333 12.1666 11.1667 11.3333" stroke="#009966" stroke-width="1.66667" stroke-linecap="round" stroke-linejoin="round"/>
</svg>
