<svg width="48" height="48" viewBox="0 0 48 48" fill="none" xmlns="http://www.w3.org/2000/svg">
<mask id="path-1-inside-1_1_612" fill="white">
<path d="M0 16C0 7.16344 7.16344 0 16 0H32C40.8366 0 48 7.16344 48 16V32C48 40.8366 40.8366 48 32 48H16C7.16344 48 0 40.8366 0 32V16Z"/>
</mask>
<path d="M0 16C0 7.16344 7.16344 0 16 0H32C40.8366 0 48 7.16344 48 16V32C48 40.8366 40.8366 48 32 48H16C7.16344 48 0 40.8366 0 32V16Z" fill="white"/>
<path d="M16 0V1H32V0V-1H16V0ZM48 16H47V32H48H49V16H48ZM32 48V47H16V48V49H32V48ZM0 32H1V16H0H-1V32H0ZM16 48V47C7.71573 47 1 40.2843 1 32H0H-1C-1 41.3888 6.61116 49 16 49V48ZM48 32H47C47 40.2843 40.2843 47 32 47V48V49C41.3888 49 49 41.3888 49 32H48ZM32 0V1C40.2843 1 47 7.71573 47 16H48H49C49 6.61116 41.3888 -1 32 -1V0ZM16 0V-1C6.61116 -1 -1 6.61116 -1 16H0H1C1 7.71573 7.71573 1 16 1V0Z" fill="#E5E7EB" fill-opacity="0.6" mask="url(#path-1-inside-1_1_612)"/>
<path d="M25.5267 27.8065C25.6988 27.8855 25.8927 27.9036 26.0764 27.8577C26.2602 27.8118 26.4228 27.7047 26.5375 27.554L26.8333 27.1665C26.9886 26.9595 27.1899 26.7915 27.4213 26.6758C27.6527 26.5601 27.9079 26.4998 28.1667 26.4998H30.6667C31.1087 26.4998 31.5326 26.6754 31.8452 26.988C32.1577 27.3006 32.3333 27.7245 32.3333 28.1665V30.6665C32.3333 31.1085 32.1577 31.5325 31.8452 31.845C31.5326 32.1576 31.1087 32.3332 30.6667 32.3332C26.6884 32.3332 22.8731 30.7528 20.0601 27.9398C17.247 25.1267 15.6667 21.3114 15.6667 17.3332C15.6667 16.8911 15.8423 16.4672 16.1548 16.1547C16.4674 15.8421 16.8913 15.6665 17.3333 15.6665H19.8333C20.2754 15.6665 20.6993 15.8421 21.0118 16.1547C21.3244 16.4672 21.5 16.8911 21.5 17.3332V19.8332C21.5 20.0919 21.4398 20.3471 21.3241 20.5785C21.2083 20.81 21.0403 21.0113 20.8333 21.1665L20.4433 21.459C20.2904 21.5758 20.1825 21.742 20.1382 21.9293C20.0938 22.1166 20.1157 22.3135 20.2 22.4865C21.3389 24.7997 23.212 26.6705 25.5267 27.8065Z" stroke="#009966" stroke-width="1.25" stroke-linecap="round" stroke-linejoin="round"/>
</svg>
