<svg width="44" height="44" viewBox="0 0 44 44" fill="none" xmlns="http://www.w3.org/2000/svg">
<rect width="44" height="44" rx="16" fill="#F9FAFB"/>
<path d="M13.0034 24.0002C12.8142 24.0008 12.6286 23.9477 12.4684 23.8471C12.3081 23.7465 12.1796 23.6025 12.098 23.4318C12.0163 23.2611 11.9847 23.0707 12.0069 22.8828C12.0291 22.6949 12.1042 22.5171 12.2234 22.3702L22.1234 12.1702C22.1977 12.0844 22.2989 12.0265 22.4104 12.0059C22.5219 11.9853 22.6371 12.0032 22.7371 12.0567C22.8371 12.1102 22.916 12.1961 22.9607 12.3003C23.0055 12.4045 23.0135 12.5208 22.9834 12.6302L21.0634 18.6502C21.0068 18.8017 20.9878 18.9647 21.008 19.1252C21.0282 19.2857 21.0871 19.4388 21.1795 19.5716C21.2719 19.7043 21.3952 19.8127 21.5387 19.8873C21.6822 19.962 21.8417 20.0007 22.0034 20.0002H29.0034C29.1926 19.9995 29.3782 20.0526 29.5385 20.1532C29.6987 20.2538 29.8272 20.3978 29.9089 20.5685C29.9905 20.7392 30.0221 20.9296 29.9999 21.1175C29.9777 21.3054 29.9026 21.4832 29.7834 21.6302L19.8834 31.8302C19.8091 31.9159 19.708 31.9738 19.5964 31.9944C19.4849 32.0151 19.3697 31.9972 19.2697 31.9437C19.1697 31.8902 19.0908 31.8043 19.0461 31.7001C19.0013 31.5958 18.9933 31.4795 19.0234 31.3702L20.9434 25.3502C21 25.1986 21.019 25.0356 20.9988 24.8752C20.9786 24.7147 20.9198 24.5615 20.8273 24.4287C20.7349 24.296 20.6116 24.1876 20.4681 24.113C20.3246 24.0384 20.1652 23.9996 20.0034 24.0002H13.0034Z" stroke="#101828" stroke-width="1.5" stroke-linecap="round" stroke-linejoin="round"/>
</svg>
