<svg width="15" height="15" viewBox="0 0 15 15" fill="none" xmlns="http://www.w3.org/2000/svg">
<g clip-path="url(#clip0_1_841)">
<path d="M7 13C5.82937 13.0035 4.70016 12.567 3.83634 11.7769C2.97252 10.9869 2.43717 9.90103 2.33649 8.73474C2.2358 7.56845 2.57712 6.40691 3.29276 5.48049C4.0084 4.55408 5.04608 3.93047 6.2 3.73333C10 3 11 2.65333 12.3333 1C13 2.33333 13.6667 3.78667 13.6667 6.33333C13.6667 10 10.48 13 7 13Z" stroke="#007A55" stroke-width="1.33333" stroke-linecap="round" stroke-linejoin="round"/>
<path d="M1 13.6667C1 11.6667 2.23333 10.0933 4.38667 9.66667C6 9.34667 7.66667 8.33334 8.33333 7.66667" stroke="#007A55" stroke-width="1.33333" stroke-linecap="round" stroke-linejoin="round"/>
</g>
<defs>
<clipPath id="clip0_1_841">
<rect width="14.6667" height="14.6667" fill="white"/>
</clipPath>
</defs>
</svg>
