<svg width="16" height="16" viewBox="0 0 16 16" fill="none" xmlns="http://www.w3.org/2000/svg">
<g clip-path="url(#clip0_1_6)">
<path d="M2.66894 9.00174C2.54278 9.00217 2.41909 8.96679 2.31224 8.89972C2.20539 8.83265 2.11976 8.73664 2.06531 8.62284C2.01085 8.50904 1.9898 8.38213 2.00461 8.25684C2.01941 8.13156 2.06946 8.01304 2.14894 7.91507L8.74894 1.11507C8.79845 1.05792 8.86591 1.01931 8.94026 1.00556C9.01461 0.991809 9.09142 1.00374 9.15809 1.03941C9.22476 1.07507 9.27733 1.13233 9.30716 1.20181C9.337 1.27128 9.34233 1.34884 9.32227 1.42174L8.04227 5.43507C8.00453 5.53609 7.99185 5.64475 8.00533 5.75174C8.01881 5.85873 8.05805 5.96086 8.11967 6.04935C8.18129 6.13785 8.26346 6.21008 8.35912 6.25984C8.45479 6.30961 8.5611 6.33542 8.66894 6.33507H13.3356C13.4618 6.33464 13.5855 6.37001 13.6923 6.43708C13.7992 6.50415 13.8848 6.60017 13.9392 6.71397C13.9937 6.82776 14.0147 6.95468 13.9999 7.07996C13.9851 7.20525 13.9351 7.32376 13.8556 7.42174L7.25561 14.2217C7.2061 14.2789 7.13863 14.3175 7.06429 14.3312C6.98994 14.345 6.91312 14.3331 6.84645 14.2974C6.77978 14.2617 6.72722 14.2045 6.69738 14.135C6.66755 14.0655 6.66222 13.988 6.68227 13.9151L7.96227 9.90174C8.00002 9.80072 8.01269 9.69206 7.99921 9.58507C7.98573 9.47807 7.9465 9.37595 7.88488 9.28745C7.82326 9.19896 7.74109 9.12673 7.64542 9.07696C7.54976 9.0272 7.44344 9.00139 7.33561 9.00174H2.66894Z" stroke="#009966" stroke-width="1.33333" stroke-linecap="round" stroke-linejoin="round"/>
</g>
<defs>
<clipPath id="clip0_1_6">
<rect width="16.0045" height="15.3368" fill="white"/>
</clipPath>
</defs>
</svg>
