<svg width="16" height="16" viewBox="0 0 16 16" fill="none" xmlns="http://www.w3.org/2000/svg">
<g clip-path="url(#clip0_1_911)">
<path d="M7.01293 1.54426C7.04149 1.39133 7.12265 1.25321 7.24233 1.15381C7.36201 1.05441 7.51269 1 7.66826 1C7.82384 1 7.97452 1.05441 8.0942 1.15381C8.21388 1.25321 8.29503 1.39133 8.3236 1.54426L9.02426 5.2496C9.07403 5.51303 9.20205 5.75534 9.39162 5.94491C9.58119 6.13448 9.8235 6.2625 10.0869 6.31226L13.7923 7.01293C13.9452 7.04149 14.0833 7.12265 14.1827 7.24233C14.2821 7.36201 14.3365 7.51269 14.3365 7.66826C14.3365 7.82384 14.2821 7.97452 14.1827 8.0942C14.0833 8.21388 13.9452 8.29503 13.7923 8.3236L10.0869 9.02426C9.8235 9.07403 9.58119 9.20205 9.39162 9.39162C9.20205 9.58119 9.07403 9.8235 9.02426 10.0869L8.3236 13.7923C8.29503 13.9452 8.21388 14.0833 8.0942 14.1827C7.97452 14.2821 7.82384 14.3365 7.66826 14.3365C7.51269 14.3365 7.36201 14.2821 7.24233 14.1827C7.12265 14.0833 7.04149 13.9452 7.01293 13.7923L6.31226 10.0869C6.2625 9.8235 6.13448 9.58119 5.94491 9.39162C5.75534 9.20205 5.51303 9.07403 5.2496 9.02426L1.54426 8.3236C1.39133 8.29503 1.25321 8.21388 1.15381 8.0942C1.05441 7.97452 1 7.82384 1 7.66826C1 7.51269 1.05441 7.36201 1.15381 7.24233C1.25321 7.12265 1.39133 7.04149 1.54426 7.01293L5.2496 6.31226C5.51303 6.2625 5.75534 6.13448 5.94491 5.94491C6.13448 5.75534 6.2625 5.51303 6.31226 5.2496L7.01293 1.54426Z" stroke="#5EE9B5" stroke-width="1.33333" stroke-linecap="round" stroke-linejoin="round"/>
<path d="M13.0016 1.00098V3.66764" stroke="#5EE9B5" stroke-width="1.33333" stroke-linecap="round" stroke-linejoin="round"/>
<path d="M14.3349 2.33496H11.6683" stroke="#5EE9B5" stroke-width="1.33333" stroke-linecap="round" stroke-linejoin="round"/>
<path d="M2.33492 14.3346C3.0713 14.3346 3.66825 13.7377 3.66825 13.0013C3.66825 12.2649 3.0713 11.668 2.33492 11.668C1.59854 11.668 1.00159 12.2649 1.00159 13.0013C1.00159 13.7377 1.59854 14.3346 2.33492 14.3346Z" stroke="#5EE9B5" stroke-width="1.33333" stroke-linecap="round" stroke-linejoin="round"/>
</g>
<defs>
<clipPath id="clip0_1_911">
<rect width="15.3365" height="15.3365" fill="white"/>
</clipPath>
</defs>
</svg>
