<svg width="40" height="40" viewBox="0 0 40 40" fill="none" xmlns="http://www.w3.org/2000/svg">
<path d="M0 10C0 4.47715 4.47715 0 10 0H30C35.5228 0 40 4.47715 40 10V30C40 35.5228 35.5228 40 30 40H10C4.47715 40 0 35.5228 0 30V10Z" fill="#1E2939"/>
<path d="M28.3333 12.9177C28.3333 12.9177 27.75 14.6677 26.6667 15.751C28 24.0843 18.8333 30.1677 11.6667 25.4177C13.5 25.501 15.3333 24.9177 16.6667 23.751C12.5 22.501 10.4167 17.5843 12.5 13.751C14.3333 15.9177 17.1667 17.1677 20 17.0843C19.25 13.5843 23.3333 11.5843 25.8333 13.9177C26.75 13.9177 28.3333 12.9177 28.3333 12.9177Z" stroke="#D1D5DC" stroke-width="1.66667" stroke-linecap="round" stroke-linejoin="round"/>
</svg>
