<svg width="40" height="40" viewBox="0 0 40 40" fill="none" xmlns="http://www.w3.org/2000/svg">
<path d="M0 10C0 4.47715 4.47715 0 10 0H30C35.5228 0 40 4.47715 40 10V30C40 35.5228 35.5228 40 30 40H10C4.47715 40 0 35.5228 0 30V10Z" fill="#1E2939"/>
<path d="M23.3287 28.3337V25.0003C23.4446 23.9564 23.1453 22.9088 22.4953 22.0837C24.9953 22.0837 27.4953 20.417 27.4953 17.5003C27.562 16.4587 27.2703 15.4337 26.662 14.5837C26.8953 13.6253 26.8953 12.6253 26.662 11.667C26.662 11.667 25.8287 11.667 24.162 12.917C21.962 12.5003 19.6953 12.5003 17.4953 12.917C15.8287 11.667 14.9953 11.667 14.9953 11.667C14.7453 12.6253 14.7453 13.6253 14.9953 14.5837C14.3886 15.4302 14.0941 16.461 14.162 17.5003C14.162 20.417 16.662 22.0837 19.162 22.0837C18.837 22.492 18.5953 22.9587 18.4537 23.4587C18.312 23.9587 18.2703 24.4837 18.3287 25.0003V28.3337" stroke="#D1D5DC" stroke-width="1.66667" stroke-linecap="round" stroke-linejoin="round"/>
<path d="M18.3287 24.9997C14.5703 26.6663 14.162 23.333 12.4953 23.333" stroke="#D1D5DC" stroke-width="1.66667" stroke-linecap="round" stroke-linejoin="round"/>
</svg>
