<svg width="40" height="40" viewBox="0 0 40 40" fill="none" xmlns="http://www.w3.org/2000/svg">
<path d="M0 10C0 4.47715 4.47715 0 10 0H30C35.5228 0 40 4.47715 40 10V30C40 35.5228 35.5228 40 30 40H10C4.47715 40 0 35.5228 0 30V10Z" fill="#1E2939"/>
<path d="M28.3333 15.833L20.8408 20.6055C20.5866 20.7532 20.2978 20.831 20.0038 20.831C19.7097 20.831 19.4209 20.7532 19.1667 20.6055L11.6667 15.833" stroke="#D1D5DC" stroke-width="1.66667" stroke-linecap="round" stroke-linejoin="round"/>
<path d="M26.6667 13.333H13.3333C12.4129 13.333 11.6667 14.0792 11.6667 14.9997V24.9997C11.6667 25.9201 12.4129 26.6663 13.3333 26.6663H26.6667C27.5871 26.6663 28.3333 25.9201 28.3333 24.9997V14.9997C28.3333 14.0792 27.5871 13.333 26.6667 13.333Z" stroke="#D1D5DC" stroke-width="1.66667" stroke-linecap="round" stroke-linejoin="round"/>
</svg>
