<svg width="44" height="44" viewBox="0 0 44 44" fill="none" xmlns="http://www.w3.org/2000/svg">
<path d="M0 16C0 7.16344 7.16344 0 16 0H28C36.8366 0 44 7.16344 44 16V28C44 36.8366 36.8366 44 28 44H16C7.16344 44 0 36.8366 0 28V16Z" fill="#F9FAFB"/>
<path d="M31.4863 21.047C32.2477 20.532 32.7519 19.6754 32.7519 18.7099C32.7519 17.1305 31.4246 15.853 29.7835 15.853C28.1425 15.853 26.8152 17.1305 26.8152 18.7099C26.8152 19.6754 27.3142 20.532 28.0807 21.047C27.4274 21.2648 26.8306 21.6015 26.3265 22.0372C25.632 21.4678 24.814 21.0321 23.9189 20.7746C25.0044 20.1409 25.7349 18.9872 25.7349 17.6751C25.7349 15.6748 24.0526 14.0557 21.9743 14.0557C19.8959 14.0557 18.2137 15.6797 18.2137 17.6751C18.2137 18.9872 18.9391 20.1409 20.0297 20.7746C19.1448 21.0321 18.3372 21.4629 17.6478 22.0224C17.1436 21.5966 16.5572 21.2648 15.9141 21.0519C16.6755 20.537 17.1797 19.6804 17.1797 18.7149C17.1797 17.1354 15.8524 15.858 14.2113 15.858C12.5702 15.858 11.243 17.1354 11.243 18.7149C11.243 19.6804 11.742 20.537 12.5085 21.0519C10.4662 21.7303 9 23.5969 9 25.7904V26.1172C9 26.1271 9.01029 26.137 9.02058 26.137H15.3122C15.2762 26.4093 15.2556 26.6915 15.2556 26.9737V27.3104C15.2556 28.7661 16.48 29.9446 17.9925 29.9446H25.9664C27.4788 29.9446 28.7032 28.7661 28.7032 27.3104V26.9737C28.7032 26.6915 28.6826 26.4093 28.6466 26.137H34.9794C34.9897 26.137 35 26.1271 35 26.1172V25.7904C34.9897 23.592 33.5287 21.7253 31.4863 21.047ZM27.6383 18.705C27.6383 17.5662 28.6003 16.6403 29.7835 16.6403C30.9668 16.6403 31.9288 17.5662 31.9288 18.705C31.9288 19.8289 30.9873 20.7449 29.8247 20.7697H29.7424C28.5746 20.7499 27.6383 19.8339 27.6383 18.705ZM19.0265 17.6751C19.0265 16.1154 20.3435 14.8479 21.964 14.8479C23.5845 14.8479 24.9015 16.1154 24.9015 17.6751C24.9015 19.1803 23.6719 20.4132 22.1338 20.4974H21.7942C20.256 20.4132 19.0265 19.1803 19.0265 17.6751ZM12.0507 18.705C12.0507 17.5662 13.0127 16.6403 14.1959 16.6403C15.3791 16.6403 16.3411 17.5662 16.3411 18.705C16.3411 19.8289 15.3997 20.7449 14.237 20.7697H14.1547C12.9921 20.7499 12.0507 19.8339 12.0507 18.705ZM15.4563 25.3398H9.8334C10.0649 23.2305 11.9169 21.5768 14.165 21.5619H14.2268C15.2968 21.5669 16.2742 21.9481 17.0305 22.567C16.2897 23.3394 15.7392 24.2901 15.4563 25.3398ZM27.8698 27.3104C27.8698 28.3255 27.0107 29.1523 25.9561 29.1523H17.9822C16.9276 29.1523 16.0685 28.3255 16.0685 27.3104V26.9737C16.0685 23.899 18.6201 21.3837 21.7942 21.2945C21.8508 21.2995 21.9125 21.2995 21.9691 21.2995C22.0257 21.2995 22.0875 21.2995 22.144 21.2945C25.3182 21.3837 27.8698 23.899 27.8698 26.9737V27.3104ZM28.482 25.3398C28.1991 24.2951 27.6589 23.3593 26.9232 22.5868C27.6846 21.9531 28.6723 21.5718 29.7527 21.5619H29.8144C32.0625 21.5768 33.9145 23.2305 34.146 25.3398H28.482Z" fill="black"/>
</svg>
