<svg width="44" height="44" viewBox="0 0 44 44" fill="none" xmlns="http://www.w3.org/2000/svg">
<rect width="43.996" height="44" rx="16" fill="#F9FAFB"/>
<path d="M21.5595 13.2628C21.6027 13.1844 21.6661 13.119 21.7431 13.0735C21.8202 13.0279 21.908 13.0039 21.9975 13.0039C22.087 13.0039 22.1748 13.0279 22.2519 13.0735C22.3289 13.119 22.3923 13.1844 22.4355 13.2628L25.3875 18.8668C25.4579 18.9965 25.5561 19.1091 25.6752 19.1964C25.7943 19.2837 25.9312 19.3435 26.0761 19.3716C26.221 19.3997 26.3704 19.3954 26.5134 19.3589C26.6565 19.3225 26.7897 19.2548 26.9035 19.1608L31.1805 15.4968C31.2626 15.43 31.3638 15.391 31.4695 15.3854C31.5751 15.3797 31.6799 15.4078 31.7686 15.4655C31.8573 15.5232 31.9254 15.6076 31.9632 15.7064C32.0009 15.8053 32.0062 15.9136 31.9785 16.0158L29.1445 26.2618C29.0866 26.4714 28.962 26.6565 28.7895 26.789C28.617 26.9214 28.406 26.994 28.1885 26.9958H15.8075C15.5898 26.9942 15.3786 26.9217 15.2059 26.7893C15.0332 26.6568 14.9084 26.4716 14.8505 26.2618L12.0175 16.0168C11.9897 15.9146 11.9951 15.8063 12.0328 15.7074C12.0706 15.6086 12.1387 15.5242 12.2274 15.4665C12.3161 15.4088 12.4209 15.3807 12.5265 15.3864C12.6322 15.392 12.7334 15.431 12.8155 15.4978L17.0915 19.1618C17.2053 19.2558 17.3385 19.3235 17.4816 19.3599C17.6246 19.3964 17.774 19.4007 17.9189 19.3726C18.0638 19.3445 18.2007 19.2847 18.3198 19.1974C18.4388 19.1101 18.5371 18.9975 18.6075 18.8678L21.5595 13.2628Z" stroke="#101828" stroke-width="1.5" stroke-linecap="round" stroke-linejoin="round"/>
<path d="M14.998 30.9961H28.998" stroke="#101828" stroke-width="1.5" stroke-linecap="round" stroke-linejoin="round"/>
</svg>
