<svg width="64" height="66" viewBox="0 0 64 66" fill="none" xmlns="http://www.w3.org/2000/svg">
<rect width="63.6667" height="65.33" rx="31.8333" fill="#ECFDF5"/>
<path d="M31 46.8315C28.0734 46.8404 25.2504 45.749 23.0909 43.7739C20.9313 41.7988 19.5929 39.0841 19.3412 36.1684C19.0895 33.2527 19.9428 30.3488 21.7319 28.0328C23.521 25.7167 26.1152 24.1577 29 23.6649C38.5 21.8315 41 20.9649 44.3333 16.8315C46 20.1649 47.6667 23.7982 47.6667 30.1649C47.6667 39.3315 39.7 46.8315 31 46.8315Z" stroke="#009966" stroke-width="2.5" stroke-linecap="round" stroke-linejoin="round"/>
<path d="M16 48.4983C16 43.4983 19.0833 39.565 24.4667 38.4983C28.5 37.6983 32.6667 35.165 34.3333 33.4983" stroke="#009966" stroke-width="2.5" stroke-linecap="round" stroke-linejoin="round"/>
</svg>
