<svg width="66" height="66" viewBox="0 0 66 66" fill="none" xmlns="http://www.w3.org/2000/svg">
<rect width="65.3333" height="65.33" rx="32.665" fill="#ECFDF5"/>
<path d="M32.6667 49.3316C41.8714 49.3316 49.3333 41.8697 49.3333 32.665C49.3333 23.4602 41.8714 15.9983 32.6667 15.9983C23.4619 15.9983 16 23.4602 16 32.665C16 41.8697 23.4619 49.3316 32.6667 49.3316Z" stroke="#009966" stroke-width="2.5" stroke-linecap="round" stroke-linejoin="round"/>
<path d="M32.6666 42.665C38.1895 42.665 42.6666 38.1879 42.6666 32.665C42.6666 27.1422 38.1895 22.665 32.6666 22.665C27.1438 22.665 22.6666 27.1422 22.6666 32.665C22.6666 38.1879 27.1438 42.665 32.6666 42.665Z" stroke="#009966" stroke-width="2.5" stroke-linecap="round" stroke-linejoin="round"/>
<path d="M32.6666 35.9985C34.5075 35.9985 35.9999 34.5061 35.9999 32.6651C35.9999 30.8242 34.5075 29.3318 32.6666 29.3318C30.8256 29.3318 29.3333 30.8242 29.3333 32.6651C29.3333 34.5061 30.8256 35.9985 32.6666 35.9985Z" stroke="#009966" stroke-width="2.5" stroke-linecap="round" stroke-linejoin="round"/>
</svg>
