<svg width="40" height="40" viewBox="0 0 40 40" fill="none" xmlns="http://www.w3.org/2000/svg">
<path d="M0 10C0 4.47715 4.47715 0 10 0H30C35.5228 0 40 4.47715 40 10V30C40 35.5228 35.5228 40 30 40H10C4.47715 40 0 35.5228 0 30V10Z" fill="#1E2939"/>
<path d="M23.3333 17.083C24.6594 17.083 25.9312 17.6098 26.8689 18.5475C27.8066 19.4852 28.3333 20.7569 28.3333 22.083V27.9163H25V22.083C25 21.641 24.8244 21.2171 24.5118 20.9045C24.1993 20.5919 23.7754 20.4163 23.3333 20.4163C22.8913 20.4163 22.4674 20.5919 22.1548 20.9045C21.8423 21.2171 21.6667 21.641 21.6667 22.083V27.9163H18.3333V22.083C18.3333 20.7569 18.8601 19.4852 19.7978 18.5475C20.7355 17.6098 22.0073 17.083 23.3333 17.083Z" stroke="#D1D5DC" stroke-width="1.66667" stroke-linecap="round" stroke-linejoin="round"/>
<path d="M15 17.916H11.6667V27.916H15V17.916Z" stroke="#D1D5DC" stroke-width="1.66667" stroke-linecap="round" stroke-linejoin="round"/>
<path d="M13.3333 15.4163C14.2538 15.4163 15 14.6701 15 13.7497C15 12.8292 14.2538 12.083 13.3333 12.083C12.4129 12.083 11.6667 12.8292 11.6667 13.7497C11.6667 14.6701 12.4129 15.4163 13.3333 15.4163Z" stroke="#D1D5DC" stroke-width="1.66667" stroke-linecap="round" stroke-linejoin="round"/>
</svg>
