<svg width="14" height="14" viewBox="0 0 14 14" fill="none" xmlns="http://www.w3.org/2000/svg">
<path d="M6.66671 12.6667C5.49609 12.6703 4.36688 12.2337 3.50306 11.4437C2.63923 10.6536 2.10389 9.56778 2.0032 8.40149C1.90252 7.23519 2.24384 6.07365 2.95948 5.14724C3.67512 4.22083 4.7128 3.59721 5.86671 3.40008C9.66671 2.66675 10.6667 2.32008 12 0.666748C12.6667 2.00008 13.3334 3.45341 13.3334 6.00008C13.3334 9.66675 10.1467 12.6667 6.66671 12.6667Z" stroke="#009966" stroke-width="1.33333" stroke-linecap="round" stroke-linejoin="round"/>
<path d="M0.666687 13.3335C0.666687 11.3335 1.90002 9.76016 4.05335 9.3335C5.66669 9.0135 7.33335 8.00016 8.00002 7.3335" stroke="#009966" stroke-width="1.33333" stroke-linecap="round" stroke-linejoin="round"/>
</svg>
