<svg width="47" height="47" viewBox="0 0 47 47" fill="none" xmlns="http://www.w3.org/2000/svg">
<path d="M0 16C0 7.16344 7.16345 0 16 0H31C39.8365 0 47 7.16344 47 16V31C47 39.8366 39.8365 47 31 47H16C7.16344 47 0 39.8366 0 31V16Z" fill="#ECFDF5"/>
<path d="M23 32C21.244 32.0053 19.5502 31.3505 18.2545 30.1654C16.9588 28.9803 16.1557 27.3515 16.0047 25.6021C15.8537 23.8527 16.3657 22.1104 17.4391 20.7207C18.5126 19.3311 20.0691 18.3957 21.8 18.1C27.5 17 29 16.48 31 14C32 16 33 18.18 33 22C33 27.5 28.22 32 23 32Z" stroke="#009966" stroke-width="1.5" stroke-linecap="round" stroke-linejoin="round"/>
<path d="M14 33C14 30 15.85 27.64 19.08 27C21.5 26.52 24 25 25 24" stroke="#009966" stroke-width="1.5" stroke-linecap="round" stroke-linejoin="round"/>
</svg>
