<svg width="48" height="48" viewBox="0 0 48 48" fill="none" xmlns="http://www.w3.org/2000/svg">
<path d="M0 14C0 6.26801 6.26801 0 14 0H34C41.732 0 48 6.26801 48 14V34C48 41.732 41.732 48 34 48H14C6.26801 48 0 41.732 0 34V14Z" fill="white"/>
<path d="M23 32C21.244 32.0053 19.5502 31.3505 18.2545 30.1654C16.9588 28.9803 16.1557 27.3515 16.0047 25.6021C15.8537 23.8527 16.3657 22.1104 17.4391 20.7207C18.5126 19.3311 20.0691 18.3957 21.8 18.1C27.5 17 29 16.48 31 14C32 16 33 18.18 33 22C33 27.5 28.22 32 23 32Z" stroke="#009966" stroke-width="1.5" stroke-linecap="round" stroke-linejoin="round"/>
<path d="M14 33C14 30 15.85 27.64 19.08 27C21.5 26.52 24 25 25 24" stroke="#009966" stroke-width="1.5" stroke-linecap="round" stroke-linejoin="round"/>
</svg>
