<svg width="178" height="40" viewBox="0 0 178 40" fill="none" xmlns="http://www.w3.org/2000/svg">
<path d="M0 14C0 6.26801 6.26801 0 14 0H26C33.732 0 40 6.26801 40 14V26C40 33.732 33.732 40 26 40H14C6.26801 40 0 33.732 0 26V14Z" fill="url(#paint0_linear_1_820)"/>
<path d="M19 28C17.2441 28.0053 15.5502 27.3505 14.2545 26.1654C12.9588 24.9803 12.1558 23.3515 12.0047 21.6021C11.8537 19.8527 12.3657 18.1104 13.4391 16.7207C14.5126 15.3311 16.0691 14.3957 17.8 14.1C23.5 13 25 12.48 27 10C28 12 29 14.18 29 18C29 23.5 24.22 28 19 28Z" stroke="white" stroke-width="2" stroke-linecap="round" stroke-linejoin="round"/>
<path d="M10 29C10 26 11.85 23.64 15.08 23C17.5 22.52 20 21 21 20" stroke="white" stroke-width="2" stroke-linecap="round" stroke-linejoin="round"/>
<path d="M50.52 34V8.08H67.26V12.148H54.858V18.538H65.1V22.606H54.858V29.932H67.26V34H50.52ZM80.0206 34.54C78.0166 34.54 76.3066 34.096 74.8906 33.208C73.4746 32.308 72.3886 31.084 71.6326 29.536C70.8886 27.988 70.5106 26.236 70.4986 24.28C70.5106 22.288 70.9006 20.524 71.6686 18.988C72.4486 17.44 73.5526 16.228 74.9806 15.352C76.4086 14.464 78.1066 14.02 80.0746 14.02C82.2826 14.02 84.1486 14.578 85.6726 15.694C87.2086 16.798 88.2106 18.31 88.6786 20.23L84.3586 21.4C84.0226 20.356 83.4646 19.546 82.6846 18.97C81.9046 18.382 81.0166 18.088 80.0206 18.088C78.8926 18.088 77.9626 18.358 77.2306 18.898C76.4986 19.426 75.9586 20.158 75.6106 21.094C75.2626 22.03 75.0886 23.092 75.0886 24.28C75.0886 26.128 75.5026 27.622 76.3306 28.762C77.1586 29.902 78.3886 30.472 80.0206 30.472C81.1726 30.472 82.0786 30.208 82.7386 29.68C83.4106 29.152 83.9146 28.39 84.2506 27.394L88.6786 28.384C88.0786 30.364 87.0286 31.888 85.5286 32.956C84.0286 34.012 82.1926 34.54 80.0206 34.54ZM100.344 34.54C98.4003 34.54 96.7023 34.102 95.2503 33.226C93.7983 32.35 92.6703 31.144 91.8663 29.608C91.0743 28.06 90.6783 26.284 90.6783 24.28C90.6783 22.24 91.0863 20.452 91.9023 18.916C92.7183 17.38 93.8523 16.18 95.3043 15.316C96.7563 14.452 98.4363 14.02 100.344 14.02C102.3 14.02 104.004 14.458 105.456 15.334C106.908 16.21 108.036 17.422 108.84 18.97C109.644 20.506 110.046 22.276 110.046 24.28C110.046 26.296 109.638 28.078 108.822 29.626C108.018 31.162 106.89 32.368 105.438 33.244C103.986 34.108 102.288 34.54 100.344 34.54ZM100.344 30.472C102.072 30.472 103.356 29.896 104.196 28.744C105.036 27.592 105.456 26.104 105.456 24.28C105.456 22.396 105.03 20.896 104.178 19.78C103.326 18.652 102.048 18.088 100.344 18.088C99.1803 18.088 98.2203 18.352 97.4643 18.88C96.7203 19.396 96.1683 20.122 95.8083 21.058C95.4483 21.982 95.2683 23.056 95.2683 24.28C95.2683 26.164 95.6943 27.67 96.5463 28.798C97.4103 29.914 98.6763 30.472 100.344 30.472ZM114.948 34.576C112.824 34.576 111.888 33.136 111.888 30.796C111.888 29.608 112.14 28.204 112.608 26.656L114.228 21.112C114.516 20.32 114.624 19.708 114.624 19.276C114.624 18.592 114.3 18.304 113.76 18.304C113.616 18.304 113.4 18.34 113.184 18.412C113.184 18.412 115.524 15.676 118.224 15.676C119.628 15.676 120.096 16.504 120.096 17.836C120.096 18.52 119.952 19.348 119.664 20.392L118.692 23.704C120.384 20.536 123.084 18.232 126.144 18.232C127.98 18.232 128.736 19.492 128.736 20.896C128.736 21.868 128.376 22.948 127.728 23.74C127.008 23.164 126 22.912 124.92 22.912C120.996 22.912 118.08 25.396 118.08 28.348C118.08 29.716 118.692 30.508 119.808 30.508C119.952 30.508 120.132 30.508 120.312 30.472C119.664 31.984 117.864 34.576 114.948 34.576ZM113.256 16.828C113.58 14.524 115.668 9.844 124.416 9.844C129.06 9.844 130.932 11.428 130.932 14.056C130.932 15.028 130.608 15.784 130.14 16.468C129.24 15.064 126.396 14.668 123.768 14.668C118.26 14.668 114.588 15.892 113.256 16.828ZM130.274 34.576C128.293 34.576 127.609 33.208 127.609 31.804C127.609 30.868 127.825 29.896 128.077 29.14L132.65 13.444C132.866 12.616 132.974 11.968 132.974 11.5C132.974 10.744 132.65 10.456 132.146 10.456C131.966 10.456 131.75 10.456 131.498 10.528C131.498 10.528 133.406 7.612 135.998 7.612C137.474 7.612 138.266 8.548 138.266 10.276C138.266 11.068 138.122 11.968 137.798 13.048L134.414 24.748C133.982 26.152 133.586 27.304 133.586 28.276C133.586 28.96 133.802 29.428 134.486 29.428C135.062 29.428 135.71 29.032 136.214 28.492C135.098 31.984 132.722 34.576 130.274 34.576ZM142.103 34.576C138.215 34.576 136.523 31.408 136.523 27.664C136.523 22.156 140.303 15.424 146.279 15.424C150.131 15.424 151.823 18.592 151.823 22.336C151.823 27.772 148.079 34.576 142.103 34.576ZM142.967 29.428C145.091 29.428 146.711 25.468 146.711 22.804C146.711 21.508 146.315 20.572 145.379 20.572C143.255 20.572 141.635 24.532 141.635 27.196C141.635 28.492 142.031 29.428 142.967 29.428ZM155.714 34.576C154.022 34.576 152.15 33.424 152.078 30.22C151.97 26.08 154.31 22.552 154.238 19.348C154.202 18.556 153.914 18.232 153.338 18.232C153.158 18.232 152.978 18.268 152.726 18.34C153.59 17.044 155.246 15.424 157.118 15.424C158.234 15.424 159.494 16.108 159.494 18.34C159.494 21.436 157.334 25.396 157.334 27.916C157.334 28.816 157.622 29.428 158.45 29.428C161.654 29.428 163.49 21.544 163.49 19.348C163.49 18.556 163.166 18.232 162.59 18.232C162.41 18.232 162.23 18.268 162.014 18.34C162.698 17.296 164.318 15.424 166.406 15.424C167.486 15.424 168.746 16.108 168.746 18.34C168.746 21.508 166.586 25.324 166.586 27.916C166.586 28.816 166.91 29.428 167.666 29.428C169.574 29.428 171.842 25.18 172.058 22.516C172.13 21.364 171.77 20.572 170.942 20.572C170.546 20.572 170.114 20.716 169.754 20.932C170.402 18.7 171.878 15.424 174.758 15.424C176.666 15.424 177.566 17.152 177.566 19.636C177.566 25.288 172.886 34.576 165.65 34.576C163.562 34.576 161.258 33.388 161.33 29.428C160.43 32.236 158.342 34.576 155.714 34.576Z" fill="#009966"/>
<defs>
<linearGradient id="paint0_linear_1_820" x1="0" y1="0" x2="40" y2="40" gradientUnits="userSpaceOnUse">
<stop stop-color="#00BC7D"/>
<stop offset="1" stop-color="#7CCF00"/>
</linearGradient>
</defs>
</svg>
