<svg width="48" height="48" viewBox="0 0 48 48" fill="none" xmlns="http://www.w3.org/2000/svg">
<mask id="path-1-inside-1_1_621" fill="white">
<path d="M0 16C0 7.16344 7.16344 0 16 0H32C40.8366 0 48 7.16344 48 16V32C48 40.8366 40.8366 48 32 48H16C7.16344 48 0 40.8366 0 32V16Z"/>
</mask>
<path d="M0 16C0 7.16344 7.16344 0 16 0H32C40.8366 0 48 7.16344 48 16V32C48 40.8366 40.8366 48 32 48H16C7.16344 48 0 40.8366 0 32V16Z" fill="white"/>
<path d="M16 0V1H32V0V-1H16V0ZM48 16H47V32H48H49V16H48ZM32 48V47H16V48V49H32V48ZM0 32H1V16H0H-1V32H0ZM16 48V47C7.71573 47 1 40.2843 1 32H0H-1C-1 41.3888 6.61116 49 16 49V48ZM48 32H47C47 40.2843 40.2843 47 32 47V48V49C41.3888 49 49 41.3888 49 32H48ZM32 0V1C40.2843 1 47 7.71573 47 16H48H49C49 6.61116 41.3888 -1 32 -1V0ZM16 0V-1C6.61116 -1 -1 6.61116 -1 16H0H1C1 7.71573 7.71573 1 16 1V0Z" fill="#E5E7EB" fill-opacity="0.6" mask="url(#path-1-inside-1_1_621)"/>
<path d="M30.6667 22.3337C30.6667 26.4945 26.0508 30.8278 24.5008 32.1662C24.3564 32.2747 24.1807 32.3335 24 32.3335C23.8193 32.3335 23.6436 32.2747 23.4992 32.1662C21.9492 30.8278 17.3333 26.4945 17.3333 22.3337C17.3333 20.5655 18.0357 18.8699 19.2859 17.6196C20.5362 16.3694 22.2319 15.667 24 15.667C25.7681 15.667 27.4638 16.3694 28.714 17.6196C29.9643 18.8699 30.6667 20.5655 30.6667 22.3337Z" stroke="#009966" stroke-width="1.25" stroke-linecap="round" stroke-linejoin="round"/>
<path d="M24 24.834C25.3807 24.834 26.5 23.7147 26.5 22.334C26.5 20.9533 25.3807 19.834 24 19.834C22.6193 19.834 21.5 20.9533 21.5 22.334C21.5 23.7147 22.6193 24.834 24 24.834Z" stroke="#009966" stroke-width="1.25" stroke-linecap="round" stroke-linejoin="round"/>
</svg>
