<svg width="21" height="21" viewBox="0 0 21 21" fill="none" xmlns="http://www.w3.org/2000/svg">
<path d="M12.4465 18.4071C12.4782 18.486 12.5332 18.5533 12.6042 18.6C12.6753 18.6468 12.7589 18.6706 12.8439 18.6684C12.9289 18.6663 13.0112 18.6381 13.0797 18.5879C13.1482 18.5376 13.1998 18.4675 13.2273 18.3871L18.644 2.55375C18.6707 2.47991 18.6758 2.4 18.6587 2.32338C18.6416 2.24675 18.603 2.17658 18.5475 2.12106C18.492 2.06555 18.4218 2.02699 18.3452 2.00991C18.2686 1.99282 18.1887 1.99791 18.1148 2.02458L2.2815 7.44125C2.20108 7.46883 2.13103 7.52035 2.08073 7.58889C2.03044 7.65744 2.00231 7.73972 2.00014 7.82471C1.99796 7.9097 2.02183 7.99332 2.06855 8.06435C2.11527 8.13538 2.1826 8.19042 2.2615 8.22208L8.86984 10.8721C9.07874 10.9557 9.26855 11.0808 9.42781 11.2398C9.58707 11.3987 9.71249 11.5883 9.7965 11.7971L12.4465 18.4071Z" stroke="white" stroke-width="1.25" stroke-linecap="round" stroke-linejoin="round"/>
<path d="M18.5448 2.12451L9.4281 11.2403" stroke="white" stroke-width="1.25" stroke-linecap="round" stroke-linejoin="round"/>
</svg>
