<svg width="48" height="48" viewBox="0 0 48 48" fill="none" xmlns="http://www.w3.org/2000/svg">
<path d="M0 16C0 7.16343 7.16344 0 16 0H32.0068C40.8434 0 48.0068 7.16344 48.0068 16V32.0052C48.0068 40.8418 40.8434 48.0052 32.0068 48.0052H16C7.16344 48.0052 0 40.8418 0 32.0052V16Z" fill="#ECFDF5"/>
<path d="M16.0034 26.0026C15.8142 26.0032 15.6286 25.9502 15.4684 25.8496C15.3081 25.749 15.1796 25.605 15.098 25.4343C15.0163 25.2636 14.9847 25.0732 15.0069 24.8853C15.0291 24.6973 15.1042 24.5196 15.2234 24.3726L25.1234 14.1726C25.1977 14.0869 25.2989 14.029 25.4104 14.0083C25.5219 13.9877 25.6371 14.0056 25.7371 14.0591C25.8371 14.1126 25.916 14.1985 25.9607 14.3027C26.0055 14.4069 26.0135 14.5233 25.9834 14.6326L24.0634 20.6526C24.0068 20.8041 23.9878 20.9671 24.008 21.1276C24.0282 21.2881 24.0871 21.4413 24.1795 21.574C24.2719 21.7068 24.3952 21.8151 24.5387 21.8898C24.6822 21.9644 24.8417 22.0031 25.0034 22.0026H32.0034C32.1926 22.002 32.3782 22.055 32.5385 22.1556C32.6987 22.2562 32.8272 22.4002 32.9089 22.5709C32.9905 22.7416 33.0221 22.932 32.9999 23.1199C32.9777 23.3079 32.9026 23.4856 32.7834 23.6326L22.8834 33.8326C22.8091 33.9183 22.708 33.9762 22.5964 33.9969C22.4849 34.0175 22.3697 33.9996 22.2697 33.9461C22.1697 33.8926 22.0908 33.8067 22.0461 33.7025C22.0013 33.5983 21.9933 33.482 22.0234 33.3726L23.9434 27.3526C24 27.2011 24.019 27.0381 23.9988 26.8776C23.9786 26.7171 23.9198 26.5639 23.8273 26.4312C23.7349 26.2984 23.6116 26.1901 23.4681 26.1154C23.3246 26.0408 23.1652 26.0021 23.0034 26.0026H16.0034Z" stroke="#009966" stroke-width="1.5" stroke-linecap="round" stroke-linejoin="round"/>
</svg>
